<?xml version="1.0" encoding="iso-8859-1"?>
<!-- Generator: Adobe Illustrator 19.0.0, SVG Export Plug-In . SVG Version: 6.00 Build 0)  -->
<svg version="1.1" id="Capa_1" xmlns="http://www.w3.org/2000/svg" xmlns:xlink="http://www.w3.org/1999/xlink" x="0px" y="0px"
	 viewBox="0 0 512 512" style="enable-background:new 0 0 512 512;" xml:space="preserve">
<g>
	<g>
		<path d="M509.835,206.233l-88.06-145.681c-3.897-6.447-11.971-9.002-18.87-5.974l-53.82,23.644l-82.99-24.58
			c-3.853-1.142-8.003-0.689-11.52,1.256l-95.562,52.852l-55.064-35.253c-3.407-2.181-7.551-2.895-11.49-1.976
			c-3.94,0.917-7.342,3.387-9.435,6.849L2.165,211.139c-4.213,6.97-2.095,16.028,4.771,20.407l34.024,21.698l-6.877,9.176
			c-13.888,18.532-10.11,44.909,8.422,58.797c7.345,5.504,16.082,8.398,25.099,8.398c0.806,0,1.615-0.04,2.425-0.087
			c2.162,9.297,7.471,17.913,15.689,24.071c7.538,5.649,16.371,8.375,25.135,8.375c0.79,0,1.579-0.023,2.367-0.067
			c2.228,9.627,7.711,18.081,15.711,24.076c7.345,5.504,16.082,8.398,25.099,8.398c0.806,0,1.615-0.04,2.425-0.087
			c2.162,9.297,7.471,17.912,15.689,24.071c7.538,5.649,16.371,8.375,25.135,8.375c12.785,0,25.422-5.803,33.661-16.797l1.355-1.809
			l59.986,42.698c7.728,5.5,16.653,8.145,25.504,8.145c13.711-0.001,27.237-6.35,35.813-18.263
			c3.715-5.161,6.15-10.853,7.359-16.699c16.341,3.123,33.8-3.158,44.109-17.478c5.526-7.677,8.19-16.57,8.2-25.395
			c11.821-1.422,23.034-7.576,30.497-17.944c4.551-6.322,7.161-13.474,7.945-20.73c14.064,0.319,28.079-6.03,36.875-18.25
			c6.851-9.517,9.57-21.122,7.656-32.676c-1.917-11.575-8.249-21.706-17.83-28.525l-14.555-10.36l41.153-25.98
			C511.914,222.315,514.062,213.225,509.835,206.233z M77.295,294.802c-1.922,2.565-4.728,4.228-7.9,4.683
			c-3.177,0.453-6.333-0.354-8.898-2.276c-5.296-3.968-6.375-11.503-2.407-16.799l19.669-26.247
			c3.968-5.295,11.504-6.375,16.799-2.407c5.295,3.968,6.375,11.504,2.407,16.799L77.295,294.802z M120.508,327.185
			c-3.969,5.294-11.505,6.375-16.799,2.407c-5.295-3.969-6.374-11.505-2.407-16.799l19.67-26.247
			c0.002-0.003,0.004-0.005,0.006-0.008l13.837-18.464c1.922-2.565,4.728-4.228,7.9-4.683c3.176-0.454,6.333,0.354,8.898,2.276
			c5.295,3.968,6.375,11.504,2.407,16.799L120.508,327.185z M163.721,359.567c-1.922,2.565-4.729,4.228-7.901,4.683
			c-3.171,0.454-6.333-0.352-8.898-2.275c-2.565-1.922-4.228-4.729-4.683-7.901c-0.455-3.172,0.354-6.333,2.276-8.898l33.512-44.719
			c0.001-0.001,0.001-0.002,0.002-0.003l6.105-8.146c1.922-2.565,4.729-4.228,7.901-4.683c0.577-0.083,1.154-0.124,1.727-0.124
			c2.576,0,5.072,0.827,7.171,2.399c2.565,1.922,4.228,4.729,4.683,7.901c0.455,3.172-0.354,6.333-2.276,8.898L163.721,359.567z
			 M226.601,365.705l-19.669,26.247c-3.968,5.294-11.504,6.374-16.799,2.406c-5.294-3.968-6.374-11.504-2.406-16.799l19.669-26.247
			c1.922-2.564,4.728-4.227,7.901-4.682c3.171-0.454,6.333,0.354,8.897,2.276C229.489,352.874,230.569,360.41,226.601,365.705z
			 M466.639,296.446c0.601,3.617-0.254,7.257-2.406,10.245c-4.498,6.249-13.278,7.686-19.572,3.205l-10.861-7.731
			c-0.002-0.001-0.004-0.002-0.006-0.004l-0.001-0.001l-60.553-43.049c-6.752-4.8-16.116-3.218-20.917,3.534
			c-4.8,6.752-3.218,16.117,3.534,20.917l60.438,42.968c6.117,4.446,7.517,13.031,3.117,19.142
			c-4.498,6.247-13.277,7.685-19.572,3.204l-4.748-3.379c-0.001-0.001-0.002-0.001-0.003-0.002
			c-0.002-0.001-0.003-0.002-0.005-0.004l-46.76-33.243c-6.752-4.8-16.116-3.219-20.917,3.534c-4.8,6.752-3.218,16.117,3.534,20.917
			l46.65,33.165c6.123,4.444,7.524,13.032,3.123,19.147c-4.498,6.247-13.277,7.684-19.572,3.204l-16.635-11.84
			c-0.002-0.002-0.004-0.004-0.007-0.005l-25.18-17.901c-6.752-4.799-16.117-3.218-20.917,3.534s-3.218,16.117,3.534,20.917
			l24.742,17.59c5.691,4.592,6.83,12.758,2.567,18.68c-4.498,6.246-13.277,7.685-19.573,3.205l-59.387-42.272l0.318-0.424
			c13.888-18.532,10.109-44.908-8.423-58.796c-3.499-2.622-7.278-4.612-11.199-5.995c4.054-7.744,5.589-16.534,4.325-25.356
			c-1.591-11.105-7.412-20.926-16.389-27.654c-8.978-6.728-20.037-9.556-31.143-7.966c-1.601,0.229-3.171,0.557-4.712,0.958
			c-2.794-6.622-7.31-12.615-13.464-17.226c-8.978-6.729-20.038-9.56-31.143-7.966c-5.557,0.796-10.792,2.651-15.479,5.431
			c-2.67-4.289-6.153-8.169-10.433-11.376c-16.11-12.073-38.143-10.789-52.751,1.925l-24.383-15.549l65.321-108.064l28.425,18.198
			l-18.804,10.4c-4.461,2.468-7.364,7.032-7.706,12.118c-0.719,10.669,1.456,21.367,6.29,30.938
			c14.915,29.531,51.19,41.501,80.858,26.68l69.633-34.775l35.304,0.519l133.565,94.034c0.001,0.001,0.003,0.002,0.004,0.003
			l32.705,23.28C464.037,289.615,466.037,292.807,466.639,296.446z M437.389,233.888l-129.168-90.942
			c-2.466-1.736-5.399-2.689-8.415-2.733l-43.587-0.641c-0.074-0.001-0.147-0.001-0.221-0.001c-2.325,0-4.62,0.541-6.702,1.581
			l-72.901,36.408c-14.939,7.459-33.187,1.465-40.678-13.366c-1.251-2.478-2.146-5.105-2.666-7.801l130.544-72.199l82.233,24.356
			c3.399,1.007,7.046,0.777,10.293-0.649l46.791-20.555l73.637,121.82L437.389,233.888z"/>
	</g>
</g>
<g>
</g>
<g>
</g>
<g>
</g>
<g>
</g>
<g>
</g>
<g>
</g>
<g>
</g>
<g>
</g>
<g>
</g>
<g>
</g>
<g>
</g>
<g>
</g>
<g>
</g>
<g>
</g>
<g>
</g>
</svg>
