<?xml version="1.0"?><svg fill="#000000" xmlns="http://www.w3.org/2000/svg"  viewBox="0 0 30 30" width="30px" height="30px">    <path d="M 4 5 C 2.895 5 2 5.895 2 7 L 2 23 C 2 24.105 2.895 25 4 25 L 26 25 C 27.105 25 28 24.105 28 23 L 28 7 C 28 5.895 27.105 5 26 5 L 4 5 z M 23 8 C 24.105 8 25 8.895 25 10 C 25 11.105 24.105 12 23 12 C 21.895 12 21 11.105 21 10 C 21 8.895 21.895 8 23 8 z M 9 12.001953 C 9.61925 12.001953 10.238437 12.238437 10.710938 12.710938 L 13.972656 15.972656 L 15 17 L 16.15625 18.15625 C 16.57825 18.57825 17.259641 18.574344 17.681641 18.152344 C 18.104641 17.730344 18.104641 17.044094 17.681641 16.621094 L 16.529297 15.470703 L 17.289062 14.710938 C 18.234063 13.765937 19.765937 13.765937 20.710938 14.710938 L 25 19 L 25 22 L 5 22 L 5 15 L 7.2890625 12.710938 C 7.7615625 12.238437 8.38075 12.001953 9 12.001953 z"/></svg>